<svg width="25" height="24" viewBox="0 0 25 24" fill="none" xmlns="http://www.w3.org/2000/svg">
<path d="M19.9375 3H5.875C4.63236 3 3.625 4.00736 3.625 5.25V15.9375H13.1875V6.9375C13.1875 5.69486 14.1949 4.6875 15.4375 4.6875H21.625C21.625 3.75552 20.8695 3 19.9375 3Z" fill="#EE0033"/>
<path d="M14.875 8.625C14.875 7.38236 15.8824 6.375 17.125 6.375H21.625C22.8676 6.375 23.875 7.38236 23.875 8.625V18.75C23.875 19.9926 22.8676 21 21.625 21H17.125C15.8824 21 14.875 19.9926 14.875 18.75V8.625Z" fill="#EE0033"/>
<path d="M3.0625 17.625H13.1875V21H3.0625C2.13052 21 1.375 20.2445 1.375 19.3125C1.375 18.3805 2.13052 17.625 3.0625 17.625Z" fill="#EE0033"/>
</svg>
