<svg width="25" height="24" viewBox="0 0 25 24" fill="none" xmlns="http://www.w3.org/2000/svg">
<path fill-rule="evenodd" clip-rule="evenodd" d="M13.875 9C13.875 7.48122 15.1062 6.25 16.625 6.25H20.625C22.1438 6.25 23.375 7.48122 23.375 9V18C23.375 19.5188 22.1438 20.75 20.625 20.75H16.625C15.1062 20.75 13.875 19.5188 13.875 18V9ZM16.625 7.75C15.9346 7.75 15.375 8.30964 15.375 9V18C15.375 18.6904 15.9346 19.25 16.625 19.25H20.625C21.3154 19.25 21.875 18.6904 21.875 18V9C21.875 8.30964 21.3154 7.75 20.625 7.75H16.625Z" fill="#7F7F7F"/>
<path fill-rule="evenodd" clip-rule="evenodd" d="M3.875 6C3.875 4.48122 5.10622 3.25 6.625 3.25H20.625C21.0392 3.25 21.375 3.58579 21.375 4C21.375 4.41421 21.0392 4.75 20.625 4.75H6.625C5.93464 4.75 5.375 5.30964 5.375 6V16.25H11.625C12.0392 16.25 12.375 16.5858 12.375 17C12.375 17.4142 12.0392 17.75 11.625 17.75H3.875V6Z" fill="#7F7F7F"/>
<path fill-rule="evenodd" clip-rule="evenodd" d="M1.875 18.5C1.875 17.2574 2.88236 16.25 4.125 16.25H11.625C12.0392 16.25 12.375 16.5858 12.375 17C12.375 17.4142 12.0392 17.75 11.625 17.75H4.125C3.71079 17.75 3.375 18.0858 3.375 18.5C3.375 18.9142 3.71079 19.25 4.125 19.25H11.625C12.0392 19.25 12.375 19.5858 12.375 20C12.375 20.4142 12.0392 20.75 11.625 20.75H4.125C2.88236 20.75 1.875 19.7426 1.875 18.5Z" fill="#7F7F7F"/>
</svg>
