<svg width="25" height="24" viewBox="0 0 25 24" fill="none" xmlns="http://www.w3.org/2000/svg">
<path fill-rule="evenodd" clip-rule="evenodd" d="M14.589 3.92001C13.5598 3.19953 12.1899 3.19953 11.1606 3.92002L5.64199 7.78305C4.84288 8.34242 4.36696 9.2565 4.36696 10.2319V19.3536C4.36696 19.9886 4.8817 20.5033 5.51667 20.5033H20.233C20.8679 20.5033 21.3827 19.9886 21.3827 19.3536V10.2319C21.3827 9.2565 20.9068 8.34242 20.1077 7.78304L14.589 3.92001ZM10.3694 2.78976C11.8737 1.73675 13.8759 1.73675 15.3802 2.78976L20.8988 6.65279C22.0668 7.47034 22.7623 8.8063 22.7623 10.2319V19.3536C22.7623 20.7506 21.6299 21.883 20.233 21.883H5.51667C4.11974 21.883 2.9873 20.7506 2.9873 19.3536V10.2319C2.9873 8.8063 3.68288 7.47034 4.85081 6.65279L10.3694 2.78976Z" fill="#7F7F7F"/>
<path fill-rule="evenodd" clip-rule="evenodd" d="M6.66638 11.9953C6.66638 10.5984 7.79882 9.46594 9.19575 9.46594H16.5539C17.9508 9.46594 19.0833 10.5984 19.0833 11.9953V21.193H17.7036V11.9953C17.7036 11.3603 17.1889 10.8456 16.5539 10.8456H9.19575C8.56078 10.8456 8.04604 11.3603 8.04604 11.9953V21.193H6.66638V11.9953Z" fill="#7F7F7F"/>
<path fill-rule="evenodd" clip-rule="evenodd" d="M19.0833 13.8348C19.0833 14.2158 18.7744 14.5247 18.3934 14.5247H7.35621C6.97523 14.5247 6.66638 14.2158 6.66638 13.8348C6.66638 13.4539 6.97523 13.145 7.35621 13.145H18.3934C18.7744 13.145 19.0833 13.4539 19.0833 13.8348Z" fill="#7F7F7F"/>
<path fill-rule="evenodd" clip-rule="evenodd" d="M19.0833 17.5139C19.0833 17.8949 18.7744 18.2038 18.3934 18.2038H7.35621C6.97523 18.2038 6.66638 17.8949 6.66638 17.5139C6.66638 17.1329 6.97523 16.8241 7.35621 16.8241H18.3934C18.7744 16.8241 19.0833 17.1329 19.0833 17.5139Z" fill="#7F7F7F"/>
</svg>
