<svg width="25" height="24" viewBox="0 0 25 24" fill="none" xmlns="http://www.w3.org/2000/svg">
<path fill-rule="evenodd" clip-rule="evenodd" d="M4.58115 6.8054C3.51184 7.55391 2.875 8.77707 2.875 10.0823V19.9997C2.875 21.1043 3.77043 21.9997 4.875 21.9997H6.125V18.9997V14.9997V12.9997C6.125 11.4809 7.35622 10.2497 8.875 10.2497H16.875C18.3938 10.2497 19.625 11.4809 19.625 12.9997V14.9997V18.9997V21.9997H20.875C21.9796 21.9997 22.875 21.1043 22.875 19.9997V10.0823C22.875 8.77707 22.2382 7.55391 21.1688 6.80539L15.1688 2.6054C13.7916 1.6413 11.9584 1.6413 10.5811 2.6054L4.58115 6.8054ZM18.125 21.9997V19.7497H7.625V21.9997H18.125ZM7.625 18.2497V15.7497H18.125V18.2497H7.625ZM7.625 14.2497H18.125V12.9997C18.125 12.3093 17.5654 11.7497 16.875 11.7497H8.875C8.18464 11.7497 7.625 12.3093 7.625 12.9997V14.2497Z" fill="#EE0033"/>
</svg>
