<svg width="25" height="24" viewBox="0 0 25 24" fill="none" xmlns="http://www.w3.org/2000/svg">
<path fill-rule="evenodd" clip-rule="evenodd" d="M12.3752 3.75C9.545 3.75 7.13331 5.93698 6.8001 8.87846L6.45522 11.9229C6.35298 12.8255 5.98695 13.6775 5.40229 14.3657C4.75449 15.1281 5.31857 16.25 6.20537 16.25H18.5451C19.4319 16.25 19.996 15.1281 19.3482 14.3657C18.7635 13.6775 18.3975 12.8255 18.2952 11.9229L17.9504 8.87846C17.6171 5.93698 15.2055 3.75 12.3752 3.75ZM5.30963 8.70961C5.72479 5.04473 8.74735 2.25 12.3752 2.25C16.0031 2.25 19.0257 5.04473 19.4408 8.70961L19.7857 11.7541C19.8549 12.3645 20.102 12.9363 20.4913 13.3944C21.9103 15.0647 20.797 17.75 18.5451 17.75H6.20537C3.95351 17.75 2.84014 15.0647 4.25916 13.3944C4.64843 12.9363 4.89561 12.3645 4.96476 11.7541L5.30963 8.70961Z" fill="#7F7F7F"/>
<path fill-rule="evenodd" clip-rule="evenodd" d="M9.112 18.2979C9.49987 18.1525 9.93214 18.3491 10.0775 18.737C10.4002 19.5981 11.2906 20.2502 12.3752 20.2502C13.4598 20.2502 14.3502 19.5981 14.6729 18.737C14.8183 18.3491 15.2505 18.1525 15.6384 18.2979C16.0263 18.4433 16.2229 18.8755 16.0775 19.2634C15.5268 20.7327 14.0607 21.7502 12.3752 21.7502C10.6897 21.7502 9.22356 20.7327 8.6729 19.2634C8.52754 18.8755 8.72413 18.4433 9.112 18.2979Z" fill="#7F7F7F"/>
</svg>
