<svg width="25" height="24" viewBox="0 0 25 24" fill="none" xmlns="http://www.w3.org/2000/svg">
<path fill-rule="evenodd" clip-rule="evenodd" d="M7.51066 15.6959C6.32364 16.2895 5.875 16.9706 5.875 17.5C5.875 18.0294 6.32364 18.7105 7.51066 19.3041C8.65282 19.8751 10.2832 20.25 12.125 20.25C13.9668 20.25 15.5972 19.8751 16.7393 19.3041C17.9264 18.7105 18.375 18.0294 18.375 17.5C18.375 16.9706 17.9264 16.2895 16.7393 15.6959C15.5972 15.1249 13.9668 14.75 12.125 14.75C10.2832 14.75 8.65282 15.1249 7.51066 15.6959ZM6.83984 14.3543C8.23118 13.6586 10.1008 13.25 12.125 13.25C14.1492 13.25 16.0188 13.6586 17.4102 14.3543C18.7566 15.0275 19.875 16.0964 19.875 17.5C19.875 18.9036 18.7566 19.9725 17.4102 20.6457C16.0188 21.3414 14.1492 21.75 12.125 21.75C10.1008 21.75 8.23118 21.3414 6.83984 20.6457C5.49336 19.9725 4.375 18.9036 4.375 17.5C4.375 16.0964 5.49336 15.0275 6.83984 14.3543Z" fill="#7F7F7F"/>
<path fill-rule="evenodd" clip-rule="evenodd" d="M12.125 3.75C10.3301 3.75 8.875 5.20507 8.875 7C8.875 8.79493 10.3301 10.25 12.125 10.25C13.9199 10.25 15.375 8.79493 15.375 7C15.375 5.20507 13.9199 3.75 12.125 3.75ZM7.375 7C7.375 4.37665 9.50165 2.25 12.125 2.25C14.7484 2.25 16.875 4.37665 16.875 7C16.875 9.62335 14.7484 11.75 12.125 11.75C9.50165 11.75 7.375 9.62335 7.375 7Z" fill="#7F7F7F"/>
</svg>
